<?xml version="1.0" encoding="us-ascii" standalone="no"?><svg xmlns="http://www.w3.org/2000/svg" xmlns:xlink="http://www.w3.org/1999/xlink" contentStyleType="text/css" height="446px" preserveAspectRatio="none" style="width:1101px;height:446px;background:#FFFFFF;" version="1.1" viewBox="0 0 1101 446" width="1101px" zoomAndPan="magnify"><defs/><g><rect fill="none" height="191.8633" style="stroke:#000000;stroke-width:1.5;" width="605.5" x="489.5" y="157.1094"/><rect fill="none" height="46.6211" style="stroke:#000000;stroke-width:1.5;" width="403.5" x="499.5" y="295.3516"/><line style="stroke:#181818;stroke-width:0.5;stroke-dasharray:5.0,5.0;" x1="38" x2="38" y1="81.4883" y2="365.9727"/><line style="stroke:#181818;stroke-width:0.5;stroke-dasharray:5.0,5.0;" x1="321" x2="321" y1="81.4883" y2="365.9727"/><line style="stroke:#181818;stroke-width:0.5;stroke-dasharray:5.0,5.0;" x1="599.5" x2="599.5" y1="81.4883" y2="365.9727"/><line style="stroke:#181818;stroke-width:0.5;stroke-dasharray:5.0,5.0;" x1="811" x2="811" y1="81.4883" y2="365.9727"/><line style="stroke:#181818;stroke-width:0.5;stroke-dasharray:5.0,5.0;" x1="994" x2="994" y1="81.4883" y2="365.9727"/><text fill="#000000" font-family="sans-serif" font-size="14" lengthAdjust="spacing" textLength="61" x="5" y="78.5352">End User</text><ellipse cx="38.5" cy="13.5" fill="#E2E2F0" rx="8" ry="8" style="stroke:#181818;stroke-width:0.5;"/><path d="M38.5,21.5 L38.5,48.5 M25.5,29.5 L51.5,29.5 M38.5,48.5 L25.5,63.5 M38.5,48.5 L51.5,63.5 " fill="none" style="stroke:#181818;stroke-width:0.5;"/><text fill="#000000" font-family="sans-serif" font-size="14" lengthAdjust="spacing" textLength="61" x="5" y="378.5078">End User</text><ellipse cx="38.5" cy="389.9609" fill="#E2E2F0" rx="8" ry="8" style="stroke:#181818;stroke-width:0.5;"/><path d="M38.5,397.9609 L38.5,424.9609 M25.5,405.9609 L51.5,405.9609 M38.5,424.9609 L25.5,439.9609 M38.5,424.9609 L51.5,439.9609 " fill="none" style="stroke:#181818;stroke-width:0.5;"/><rect fill="#E2E2F0" height="30.4883" rx="2.5" ry="2.5" style="stroke:#181818;stroke-width:0.5;" width="213" x="215" y="50"/><text fill="#000000" font-family="sans-serif" font-size="14" lengthAdjust="spacing" textLength="199" x="222" y="70.5352">climate_control_hmi_services</text><rect fill="#E2E2F0" height="30.4883" rx="2.5" ry="2.5" style="stroke:#181818;stroke-width:0.5;" width="213" x="215" y="364.9727"/><text fill="#000000" font-family="sans-serif" font-size="14" lengthAdjust="spacing" textLength="199" x="222" y="385.5078">climate_control_hmi_services</text><rect fill="#E2E2F0" height="30.4883" rx="2.5" ry="2.5" style="stroke:#181818;stroke-width:0.5;" width="180" x="509.5" y="50"/><text fill="#000000" font-family="sans-serif" font-size="14" lengthAdjust="spacing" textLength="166" x="516.5" y="70.5352">climate_control_services</text><rect fill="#E2E2F0" height="30.4883" rx="2.5" ry="2.5" style="stroke:#181818;stroke-width:0.5;" width="180" x="509.5" y="364.9727"/><text fill="#000000" font-family="sans-serif" font-size="14" lengthAdjust="spacing" textLength="166" x="516.5" y="385.5078">climate_control_services</text><rect fill="#E2E2F0" height="30.4883" rx="2.5" ry="2.5" style="stroke:#181818;stroke-width:0.5;" width="163" x="730" y="50"/><text fill="#000000" font-family="sans-serif" font-size="14" lengthAdjust="spacing" textLength="149" x="737" y="70.5352">sensor_data_collector</text><rect fill="#E2E2F0" height="30.4883" rx="2.5" ry="2.5" style="stroke:#181818;stroke-width:0.5;" width="163" x="730" y="364.9727"/><text fill="#000000" font-family="sans-serif" font-size="14" lengthAdjust="spacing" textLength="149" x="737" y="385.5078">sensor_data_collector</text><rect fill="#E2E2F0" height="30.4883" rx="2.5" ry="2.5" style="stroke:#181818;stroke-width:0.5;" width="182" x="903" y="50"/><text fill="#000000" font-family="sans-serif" font-size="14" lengthAdjust="spacing" textLength="168" x="910" y="70.5352">air_conditioner_actuator</text><rect fill="#E2E2F0" height="30.4883" rx="2.5" ry="2.5" style="stroke:#181818;stroke-width:0.5;" width="182" x="903" y="364.9727"/><text fill="#000000" font-family="sans-serif" font-size="14" lengthAdjust="spacing" textLength="168" x="910" y="385.5078">air_conditioner_actuator</text><polygon fill="#181818" points="309.5,108.7988,319.5,112.7988,309.5,116.7988,313.5,112.7988" style="stroke:#181818;stroke-width:1.0;"/><line style="stroke:#181818;stroke-width:1.0;" x1="38.5" x2="315.5" y1="112.7988" y2="112.7988"/><text fill="#000000" font-family="sans-serif" font-size="13" font-weight="bold" lengthAdjust="spacing" textLength="9" x="45.5" y="108.0566">1</text><text fill="#000000" font-family="sans-serif" font-size="13" lengthAdjust="spacing" textLength="246" x="58.5" y="108.0566">Set temperature (zone, requestedTemp)</text><polygon fill="#181818" points="587.5,138.1094,597.5,142.1094,587.5,146.1094,591.5,142.1094" style="stroke:#181818;stroke-width:1.0;"/><line style="stroke:#181818;stroke-width:1.0;" x1="321.5" x2="593.5" y1="142.1094" y2="142.1094"/><text fill="#000000" font-family="sans-serif" font-size="13" font-weight="bold" lengthAdjust="spacing" textLength="9" x="328.5" y="137.3672">2</text><text fill="#000000" font-family="sans-serif" font-size="13" lengthAdjust="spacing" textLength="241" x="341.5" y="137.3672">setTemperature(zone, requestedTemp)</text><path d="M489.5,157.1094 L563.5,157.1094 L563.5,164.4199 L553.5,174.4199 L489.5,174.4199 L489.5,157.1094 " fill="#EEEEEE" style="stroke:#000000;stroke-width:1.5;"/><rect fill="none" height="191.8633" style="stroke:#000000;stroke-width:1.5;" width="605.5" x="489.5" y="157.1094"/><text fill="#000000" font-family="sans-serif" font-size="13" font-weight="bold" lengthAdjust="spacing" textLength="29" x="504.5" y="170.6777">loop</text><text fill="#000000" font-family="sans-serif" font-size="11" font-weight="bold" lengthAdjust="spacing" textLength="220" x="578.5" y="169.7441">[while currentTemp != requestedTemp]</text><line style="stroke:#181818;stroke-width:1.0;" x1="599.5" x2="641.5" y1="195.7305" y2="195.7305"/><line style="stroke:#181818;stroke-width:1.0;" x1="641.5" x2="641.5" y1="195.7305" y2="208.7305"/><line style="stroke:#181818;stroke-width:1.0;" x1="600.5" x2="641.5" y1="208.7305" y2="208.7305"/><polygon fill="#181818" points="610.5,204.7305,600.5,208.7305,610.5,212.7305,606.5,208.7305" style="stroke:#181818;stroke-width:1.0;"/><text fill="#000000" font-family="sans-serif" font-size="13" font-weight="bold" lengthAdjust="spacing" textLength="9" x="606.5" y="190.9883">3</text><text fill="#000000" font-family="sans-serif" font-size="13" lengthAdjust="spacing" textLength="168" x="619.5" y="190.9883">Check current temperature</text><line style="stroke:#181818;stroke-width:1.0;" x1="599.5" x2="641.5" y1="238.041" y2="238.041"/><line style="stroke:#181818;stroke-width:1.0;" x1="641.5" x2="641.5" y1="238.041" y2="251.041"/><line style="stroke:#181818;stroke-width:1.0;" x1="600.5" x2="641.5" y1="251.041" y2="251.041"/><polygon fill="#181818" points="610.5,247.041,600.5,251.041,610.5,255.041,606.5,251.041" style="stroke:#181818;stroke-width:1.0;"/><text fill="#000000" font-family="sans-serif" font-size="13" font-weight="bold" lengthAdjust="spacing" textLength="9" x="606.5" y="233.2988">4</text><text fill="#000000" font-family="sans-serif" font-size="13" lengthAdjust="spacing" textLength="185" x="619.5" y="233.2988">Calculate required adaptation</text><polygon fill="#181818" points="982,276.3516,992,280.3516,982,284.3516,986,280.3516" style="stroke:#181818;stroke-width:1.0;"/><line style="stroke:#181818;stroke-width:1.0;" x1="599.5" x2="988" y1="280.3516" y2="280.3516"/><text fill="#000000" font-family="sans-serif" font-size="13" font-weight="bold" lengthAdjust="spacing" textLength="9" x="606.5" y="275.6094">5</text><text fill="#000000" font-family="sans-serif" font-size="13" lengthAdjust="spacing" textLength="197" x="619.5" y="275.6094">[CAN] actuator_control_climate</text><path d="M499.5,295.3516 L573.5,295.3516 L573.5,302.6621 L563.5,312.6621 L499.5,312.6621 L499.5,295.3516 " fill="#EEEEEE" style="stroke:#000000;stroke-width:1.5;"/><rect fill="none" height="46.6211" style="stroke:#000000;stroke-width:1.5;" width="403.5" x="499.5" y="295.3516"/><text fill="#000000" font-family="sans-serif" font-size="13" font-weight="bold" lengthAdjust="spacing" textLength="29" x="514.5" y="308.9199">loop</text><text fill="#000000" font-family="sans-serif" font-size="11" font-weight="bold" lengthAdjust="spacing" textLength="93" x="588.5" y="307.9863">[each 5 seconds]</text><line style="stroke:#181818;stroke-width:1.0;" x1="600.5" x2="610.5" y1="333.9727" y2="329.9727"/><line style="stroke:#181818;stroke-width:1.0;" x1="600.5" x2="610.5" y1="333.9727" y2="337.9727"/><line style="stroke:#181818;stroke-width:1.0;" x1="599.5" x2="810.5" y1="333.9727" y2="333.9727"/><text fill="#000000" font-family="sans-serif" font-size="13" font-weight="bold" lengthAdjust="spacing" textLength="9" x="616.5" y="329.2305">6</text><text fill="#000000" font-family="sans-serif" font-size="13" lengthAdjust="spacing" textLength="168" x="629.5" y="329.2305">[CAN] sensor_temp_humid</text><!--SRC=[VP51IyGm48Nl_HLZJmhsw6N1WYnUlRYUHCAO33IO9dKoKV3NEudRrS9Ye50otvkyUODM4aD_7nqyPU8UC4FHdsv15c_zWb6Wjy7FA6HiYi8fc6dsHg4FRoatYLxyhzZGhRZbCyMSs3WKL4q8L7qrk5QsB7gkVPqNdoAnGIi5LxmMkWwBf5ZcLnsaJZECQd07ZoGWD2_4A8K9BhzKVmrCxuMoa3jexQfJT1YRnPq-BeTVmNc-2oajy3dvG60BCyMcWOlRBTc1djRtr7u_aNrRHN-jdMCns18qqzRLCpb0XujWJM73Qm8xUDxVFRp06irf3yUzDBxv9hGJtEYWLPRRVJqrzM5St_vfTjnHjMccCdlNQDAyw_SD]--></g></svg>