<?xml version="1.0" encoding="us-ascii" standalone="no"?><svg xmlns="http://www.w3.org/2000/svg" xmlns:xlink="http://www.w3.org/1999/xlink" contentStyleType="text/css" height="446px" preserveAspectRatio="none" style="width:1106px;height:446px;background:#FFFFFF;" version="1.1" viewBox="0 0 1106 446" width="1106px" zoomAndPan="magnify"><defs/><g><rect fill="none" height="191.8633" style="stroke:#000000;stroke-width:1.5;" width="605.5" x="494.5" y="157.1094"/><rect fill="none" height="46.6211" style="stroke:#000000;stroke-width:1.5;" width="403.5" x="504.5" y="295.3516"/><line style="stroke:#181818;stroke-width:0.5;stroke-dasharray:5.0,5.0;" x1="38" x2="38" y1="81.4883" y2="365.9727"/><line style="stroke:#181818;stroke-width:0.5;stroke-dasharray:5.0,5.0;" x1="324" x2="324" y1="81.4883" y2="365.9727"/><line style="stroke:#181818;stroke-width:0.5;stroke-dasharray:5.0,5.0;" x1="604.5" x2="604.5" y1="81.4883" y2="365.9727"/><line style="stroke:#181818;stroke-width:0.5;stroke-dasharray:5.0,5.0;" x1="816" x2="816" y1="81.4883" y2="365.9727"/><line style="stroke:#181818;stroke-width:0.5;stroke-dasharray:5.0,5.0;" x1="999" x2="999" y1="81.4883" y2="365.9727"/><text fill="#000000" font-family="sans-serif" font-size="14" lengthAdjust="spacing" textLength="61" x="5" y="78.5352">End User</text><ellipse cx="38.5" cy="13.5" fill="#E2E2F0" rx="8" ry="8" style="stroke:#181818;stroke-width:0.5;"/><path d="M38.5,21.5 L38.5,48.5 M25.5,29.5 L51.5,29.5 M38.5,48.5 L25.5,63.5 M38.5,48.5 L51.5,63.5 " fill="none" style="stroke:#181818;stroke-width:0.5;"/><text fill="#000000" font-family="sans-serif" font-size="14" lengthAdjust="spacing" textLength="61" x="5" y="378.5078">End User</text><ellipse cx="38.5" cy="389.9609" fill="#E2E2F0" rx="8" ry="8" style="stroke:#181818;stroke-width:0.5;"/><path d="M38.5,397.9609 L38.5,424.9609 M25.5,405.9609 L51.5,405.9609 M38.5,424.9609 L25.5,439.9609 M38.5,424.9609 L51.5,439.9609 " fill="none" style="stroke:#181818;stroke-width:0.5;"/><rect fill="#E2E2F0" height="30.4883" rx="2.5" ry="2.5" style="stroke:#181818;stroke-width:0.5;" width="213" x="218" y="50"/><text fill="#000000" font-family="sans-serif" font-size="14" lengthAdjust="spacing" textLength="199" x="225" y="70.5352">climate_control_hmi_services</text><rect fill="#E2E2F0" height="30.4883" rx="2.5" ry="2.5" style="stroke:#181818;stroke-width:0.5;" width="213" x="218" y="364.9727"/><text fill="#000000" font-family="sans-serif" font-size="14" lengthAdjust="spacing" textLength="199" x="225" y="385.5078">climate_control_hmi_services</text><rect fill="#E2E2F0" height="30.4883" rx="2.5" ry="2.5" style="stroke:#181818;stroke-width:0.5;" width="180" x="514.5" y="50"/><text fill="#000000" font-family="sans-serif" font-size="14" lengthAdjust="spacing" textLength="166" x="521.5" y="70.5352">climate_control_services</text><rect fill="#E2E2F0" height="30.4883" rx="2.5" ry="2.5" style="stroke:#181818;stroke-width:0.5;" width="180" x="514.5" y="364.9727"/><text fill="#000000" font-family="sans-serif" font-size="14" lengthAdjust="spacing" textLength="166" x="521.5" y="385.5078">climate_control_services</text><rect fill="#E2E2F0" height="30.4883" rx="2.5" ry="2.5" style="stroke:#181818;stroke-width:0.5;" width="163" x="735" y="50"/><text fill="#000000" font-family="sans-serif" font-size="14" lengthAdjust="spacing" textLength="149" x="742" y="70.5352">sensor_data_collector</text><rect fill="#E2E2F0" height="30.4883" rx="2.5" ry="2.5" style="stroke:#181818;stroke-width:0.5;" width="163" x="735" y="364.9727"/><text fill="#000000" font-family="sans-serif" font-size="14" lengthAdjust="spacing" textLength="149" x="742" y="385.5078">sensor_data_collector</text><rect fill="#E2E2F0" height="30.4883" rx="2.5" ry="2.5" style="stroke:#181818;stroke-width:0.5;" width="182" x="908" y="50"/><text fill="#000000" font-family="sans-serif" font-size="14" lengthAdjust="spacing" textLength="168" x="915" y="70.5352">air_conditioner_actuator</text><rect fill="#E2E2F0" height="30.4883" rx="2.5" ry="2.5" style="stroke:#181818;stroke-width:0.5;" width="182" x="908" y="364.9727"/><text fill="#000000" font-family="sans-serif" font-size="14" lengthAdjust="spacing" textLength="168" x="915" y="385.5078">air_conditioner_actuator</text><polygon fill="#181818" points="312.5,108.7988,322.5,112.7988,312.5,116.7988,316.5,112.7988" style="stroke:#181818;stroke-width:1.0;"/><line style="stroke:#181818;stroke-width:1.0;" x1="38.5" x2="318.5" y1="112.7988" y2="112.7988"/><text fill="#000000" font-family="sans-serif" font-size="13" font-weight="bold" lengthAdjust="spacing" textLength="9" x="45.5" y="108.0566">1</text><text fill="#000000" font-family="sans-serif" font-size="13" lengthAdjust="spacing" textLength="249" x="58.5" y="108.0566">Set humidity (zone, requestedHumidity)</text><polygon fill="#181818" points="592.5,138.1094,602.5,142.1094,592.5,146.1094,596.5,142.1094" style="stroke:#181818;stroke-width:1.0;"/><line style="stroke:#181818;stroke-width:1.0;" x1="324.5" x2="598.5" y1="142.1094" y2="142.1094"/><text fill="#000000" font-family="sans-serif" font-size="13" font-weight="bold" lengthAdjust="spacing" textLength="9" x="331.5" y="137.3672">2</text><text fill="#000000" font-family="sans-serif" font-size="13" lengthAdjust="spacing" textLength="243" x="344.5" y="137.3672">setHumidity(zone, requestedHumidity)</text><path d="M494.5,157.1094 L568.5,157.1094 L568.5,164.4199 L558.5,174.4199 L494.5,174.4199 L494.5,157.1094 " fill="#EEEEEE" style="stroke:#000000;stroke-width:1.5;"/><rect fill="none" height="191.8633" style="stroke:#000000;stroke-width:1.5;" width="605.5" x="494.5" y="157.1094"/><text fill="#000000" font-family="sans-serif" font-size="13" font-weight="bold" lengthAdjust="spacing" textLength="29" x="509.5" y="170.6777">loop</text><text fill="#000000" font-family="sans-serif" font-size="11" font-weight="bold" lengthAdjust="spacing" textLength="260" x="583.5" y="169.7441">[while currentHumidity != requestedHumidity]</text><line style="stroke:#181818;stroke-width:1.0;" x1="604.5" x2="646.5" y1="195.7305" y2="195.7305"/><line style="stroke:#181818;stroke-width:1.0;" x1="646.5" x2="646.5" y1="195.7305" y2="208.7305"/><line style="stroke:#181818;stroke-width:1.0;" x1="605.5" x2="646.5" y1="208.7305" y2="208.7305"/><polygon fill="#181818" points="615.5,204.7305,605.5,208.7305,615.5,212.7305,611.5,208.7305" style="stroke:#181818;stroke-width:1.0;"/><text fill="#000000" font-family="sans-serif" font-size="13" font-weight="bold" lengthAdjust="spacing" textLength="9" x="611.5" y="190.9883">3</text><text fill="#000000" font-family="sans-serif" font-size="13" lengthAdjust="spacing" textLength="148" x="624.5" y="190.9883">Check current humidity</text><line style="stroke:#181818;stroke-width:1.0;" x1="604.5" x2="646.5" y1="238.041" y2="238.041"/><line style="stroke:#181818;stroke-width:1.0;" x1="646.5" x2="646.5" y1="238.041" y2="251.041"/><line style="stroke:#181818;stroke-width:1.0;" x1="605.5" x2="646.5" y1="251.041" y2="251.041"/><polygon fill="#181818" points="615.5,247.041,605.5,251.041,615.5,255.041,611.5,251.041" style="stroke:#181818;stroke-width:1.0;"/><text fill="#000000" font-family="sans-serif" font-size="13" font-weight="bold" lengthAdjust="spacing" textLength="9" x="611.5" y="233.2988">4</text><text fill="#000000" font-family="sans-serif" font-size="13" lengthAdjust="spacing" textLength="185" x="624.5" y="233.2988">Calculate required adaptation</text><polygon fill="#181818" points="987,276.3516,997,280.3516,987,284.3516,991,280.3516" style="stroke:#181818;stroke-width:1.0;"/><line style="stroke:#181818;stroke-width:1.0;" x1="604.5" x2="993" y1="280.3516" y2="280.3516"/><text fill="#000000" font-family="sans-serif" font-size="13" font-weight="bold" lengthAdjust="spacing" textLength="9" x="611.5" y="275.6094">5</text><text fill="#000000" font-family="sans-serif" font-size="13" lengthAdjust="spacing" textLength="197" x="624.5" y="275.6094">[CAN] actuator_control_climate</text><path d="M504.5,295.3516 L578.5,295.3516 L578.5,302.6621 L568.5,312.6621 L504.5,312.6621 L504.5,295.3516 " fill="#EEEEEE" style="stroke:#000000;stroke-width:1.5;"/><rect fill="none" height="46.6211" style="stroke:#000000;stroke-width:1.5;" width="403.5" x="504.5" y="295.3516"/><text fill="#000000" font-family="sans-serif" font-size="13" font-weight="bold" lengthAdjust="spacing" textLength="29" x="519.5" y="308.9199">loop</text><text fill="#000000" font-family="sans-serif" font-size="11" font-weight="bold" lengthAdjust="spacing" textLength="93" x="593.5" y="307.9863">[each 5 seconds]</text><line style="stroke:#181818;stroke-width:1.0;" x1="605.5" x2="615.5" y1="333.9727" y2="329.9727"/><line style="stroke:#181818;stroke-width:1.0;" x1="605.5" x2="615.5" y1="333.9727" y2="337.9727"/><line style="stroke:#181818;stroke-width:1.0;" x1="604.5" x2="815.5" y1="333.9727" y2="333.9727"/><text fill="#000000" font-family="sans-serif" font-size="13" font-weight="bold" lengthAdjust="spacing" textLength="9" x="621.5" y="329.2305">6</text><text fill="#000000" font-family="sans-serif" font-size="13" lengthAdjust="spacing" textLength="168" x="634.5" y="329.2305">[CAN] sensor_temp_humid</text><!--SRC=[VP7DIiKm48NtUOgnAmMxT7F1Wbo4kt8ZhaJ2c0mqc2OrcIZwz4vYMoZ-10ebyvsPCoTeE2ReReE5Xqof0ynGv4VDcDWPDsDWw8nt4p9f4mEdwFKuEItGcpEKcqGk_bViw5RSyvb2ZabRP1IDzrHzDRXMzYowLFjQnou6IXeD5rpnMb0A2yTGfcTPf6xJ3sBm0FV4C9R9YV83pZz5V0c9NWjb9djQ2XTAs7ve7WyodTV2tmBbOvpXVNIUm9IKA6mYEBl-gL0WfmtOvXn7CY-hU3Fv6uZU52_HjhOkaGMqE3FMC7Qy1760n-FDtHEi2MtFiJnFuvjvGZF2bQnRPRdTrrF3xuTrzdUpvQcOfbateuqcYRr-Nm00]--></g></svg>