<?xml version="1.0" encoding="us-ascii" standalone="no"?><svg xmlns="http://www.w3.org/2000/svg" xmlns:xlink="http://www.w3.org/1999/xlink" contentStyleType="text/css" height="849px" preserveAspectRatio="none" style="width:1077px;height:849px;background:#FFFFFF;" version="1.1" viewBox="0 0 1077 849" width="1077px" zoomAndPan="magnify"><defs/><g><rect fill="none" height="191.8633" style="stroke:#000000;stroke-width:1.5;" width="607.5" x="452.5" y="242.7305"/><rect fill="none" height="46.6211" style="stroke:#000000;stroke-width:1.5;" width="405.5" x="462.5" y="267.041"/><line style="stroke:#181818;stroke-width:0.5;stroke-dasharray:5.0,5.0;" x1="38" x2="38" y1="81.4883" y2="768.2109"/><line style="stroke:#181818;stroke-width:0.5;stroke-dasharray:5.0,5.0;" x1="293" x2="293" y1="81.4883" y2="768.2109"/><line style="stroke:#181818;stroke-width:0.5;stroke-dasharray:5.0,5.0;" x1="562.5" x2="562.5" y1="81.4883" y2="768.2109"/><line style="stroke:#181818;stroke-width:0.5;stroke-dasharray:5.0,5.0;" x1="776" x2="776" y1="81.4883" y2="768.2109"/><line style="stroke:#181818;stroke-width:0.5;stroke-dasharray:5.0,5.0;" x1="959" x2="959" y1="81.4883" y2="768.2109"/><text fill="#000000" font-family="sans-serif" font-size="14" lengthAdjust="spacing" textLength="61" x="5" y="78.5352">End User</text><ellipse cx="38.5" cy="13.5" fill="#E2E2F0" rx="8" ry="8" style="stroke:#181818;stroke-width:0.5;"/><path d="M38.5,21.5 L38.5,48.5 M25.5,29.5 L51.5,29.5 M38.5,48.5 L25.5,63.5 M38.5,48.5 L51.5,63.5 " fill="none" style="stroke:#181818;stroke-width:0.5;"/><text fill="#000000" font-family="sans-serif" font-size="14" lengthAdjust="spacing" textLength="61" x="5" y="780.7461">End User</text><ellipse cx="38.5" cy="792.1992" fill="#E2E2F0" rx="8" ry="8" style="stroke:#181818;stroke-width:0.5;"/><path d="M38.5,800.1992 L38.5,827.1992 M25.5,808.1992 L51.5,808.1992 M38.5,827.1992 L25.5,842.1992 M38.5,827.1992 L51.5,842.1992 " fill="none" style="stroke:#181818;stroke-width:0.5;"/><rect fill="#E2E2F0" height="30.4883" rx="2.5" ry="2.5" style="stroke:#181818;stroke-width:0.5;" width="213" x="187" y="50"/><text fill="#000000" font-family="sans-serif" font-size="14" lengthAdjust="spacing" textLength="199" x="194" y="70.5352">climate_control_hmi_services</text><rect fill="#E2E2F0" height="30.4883" rx="2.5" ry="2.5" style="stroke:#181818;stroke-width:0.5;" width="213" x="187" y="767.2109"/><text fill="#000000" font-family="sans-serif" font-size="14" lengthAdjust="spacing" textLength="199" x="194" y="787.7461">climate_control_hmi_services</text><rect fill="#E2E2F0" height="30.4883" rx="2.5" ry="2.5" style="stroke:#181818;stroke-width:0.5;" width="180" x="472.5" y="50"/><text fill="#000000" font-family="sans-serif" font-size="14" lengthAdjust="spacing" textLength="166" x="479.5" y="70.5352">climate_control_services</text><rect fill="#E2E2F0" height="30.4883" rx="2.5" ry="2.5" style="stroke:#181818;stroke-width:0.5;" width="180" x="472.5" y="767.2109"/><text fill="#000000" font-family="sans-serif" font-size="14" lengthAdjust="spacing" textLength="166" x="479.5" y="787.7461">climate_control_services</text><rect fill="#E2E2F0" height="30.4883" rx="2.5" ry="2.5" style="stroke:#181818;stroke-width:0.5;" width="163" x="695" y="50"/><text fill="#000000" font-family="sans-serif" font-size="14" lengthAdjust="spacing" textLength="149" x="702" y="70.5352">sensor_data_collector</text><rect fill="#E2E2F0" height="30.4883" rx="2.5" ry="2.5" style="stroke:#181818;stroke-width:0.5;" width="163" x="695" y="767.2109"/><text fill="#000000" font-family="sans-serif" font-size="14" lengthAdjust="spacing" textLength="149" x="702" y="787.7461">sensor_data_collector</text><rect fill="#E2E2F0" height="30.4883" rx="2.5" ry="2.5" style="stroke:#181818;stroke-width:0.5;" width="182" x="868" y="50"/><text fill="#000000" font-family="sans-serif" font-size="14" lengthAdjust="spacing" textLength="168" x="875" y="70.5352">air_conditioner_actuator</text><rect fill="#E2E2F0" height="30.4883" rx="2.5" ry="2.5" style="stroke:#181818;stroke-width:0.5;" width="182" x="868" y="767.2109"/><text fill="#000000" font-family="sans-serif" font-size="14" lengthAdjust="spacing" textLength="168" x="875" y="787.7461">air_conditioner_actuator</text><rect fill="#EEEEEE" height="3" style="stroke:#EEEEEE;stroke-width:1.0;" width="1070" x="0" y="112.1436"/><line style="stroke:#000000;stroke-width:1.0;" x1="0" x2="1070" y1="112.1436" y2="112.1436"/><line style="stroke:#000000;stroke-width:1.0;" x1="0" x2="1070" y1="115.1436" y2="115.1436"/><rect fill="#EEEEEE" height="23.3105" style="stroke:#000000;stroke-width:2.0;" width="198" x="436" y="101.4883"/><text fill="#000000" font-family="sans-serif" font-size="13" font-weight="bold" lengthAdjust="spacing" textLength="180" x="442" y="118.0566">Enable personalized mode</text><polygon fill="#181818" points="281.5,152.1094,291.5,156.1094,281.5,160.1094,285.5,156.1094" style="stroke:#181818;stroke-width:1.0;"/><line style="stroke:#181818;stroke-width:1.0;" x1="38.5" x2="287.5" y1="156.1094" y2="156.1094"/><text fill="#000000" font-family="sans-serif" font-size="13" font-weight="bold" lengthAdjust="spacing" textLength="9" x="45.5" y="151.3672">1</text><text fill="#000000" font-family="sans-serif" font-size="13" lengthAdjust="spacing" textLength="203" x="58.5" y="151.3672">Enable personilized mode (zone)</text><polygon fill="#181818" points="550.5,181.4199,560.5,185.4199,550.5,189.4199,554.5,185.4199" style="stroke:#181818;stroke-width:1.0;"/><line style="stroke:#181818;stroke-width:1.0;" x1="293.5" x2="556.5" y1="185.4199" y2="185.4199"/><text fill="#000000" font-family="sans-serif" font-size="13" font-weight="bold" lengthAdjust="spacing" textLength="9" x="300.5" y="180.6777">2</text><text fill="#000000" font-family="sans-serif" font-size="13" lengthAdjust="spacing" textLength="219" x="313.5" y="180.6777">personilized_mode(zone, on=True)</text><line style="stroke:#181818;stroke-width:1.0;" x1="562.5" x2="604.5" y1="214.7305" y2="214.7305"/><line style="stroke:#181818;stroke-width:1.0;" x1="604.5" x2="604.5" y1="214.7305" y2="227.7305"/><line style="stroke:#181818;stroke-width:1.0;" x1="563.5" x2="604.5" y1="227.7305" y2="227.7305"/><polygon fill="#181818" points="573.5,223.7305,563.5,227.7305,573.5,231.7305,569.5,227.7305" style="stroke:#181818;stroke-width:1.0;"/><text fill="#000000" font-family="sans-serif" font-size="13" font-weight="bold" lengthAdjust="spacing" textLength="9" x="569.5" y="209.9883">3</text><text fill="#000000" font-family="sans-serif" font-size="13" lengthAdjust="spacing" textLength="147" x="582.5" y="209.9883">Check user preferences</text><path d="M452.5,242.7305 L526.5,242.7305 L526.5,250.041 L516.5,260.041 L452.5,260.041 L452.5,242.7305 " fill="#EEEEEE" style="stroke:#000000;stroke-width:1.5;"/><rect fill="none" height="191.8633" style="stroke:#000000;stroke-width:1.5;" width="607.5" x="452.5" y="242.7305"/><text fill="#000000" font-family="sans-serif" font-size="13" font-weight="bold" lengthAdjust="spacing" textLength="29" x="467.5" y="256.2988">loop</text><text fill="#000000" font-family="sans-serif" font-size="11" font-weight="bold" lengthAdjust="spacing" textLength="235" x="541.5" y="255.3652">[while currentClimate != preferedClimate]</text><path d="M462.5,267.041 L536.5,267.041 L536.5,274.3516 L526.5,284.3516 L462.5,284.3516 L462.5,267.041 " fill="#EEEEEE" style="stroke:#000000;stroke-width:1.5;"/><rect fill="none" height="46.6211" style="stroke:#000000;stroke-width:1.5;" width="405.5" x="462.5" y="267.041"/><text fill="#000000" font-family="sans-serif" font-size="13" font-weight="bold" lengthAdjust="spacing" textLength="29" x="477.5" y="280.6094">loop</text><text fill="#000000" font-family="sans-serif" font-size="11" font-weight="bold" lengthAdjust="spacing" textLength="93" x="551.5" y="279.6758">[each 5 seconds]</text><line style="stroke:#181818;stroke-width:1.0;" x1="563.5" x2="573.5" y1="305.6621" y2="301.6621"/><line style="stroke:#181818;stroke-width:1.0;" x1="563.5" x2="573.5" y1="305.6621" y2="309.6621"/><line style="stroke:#181818;stroke-width:1.0;" x1="562.5" x2="775.5" y1="305.6621" y2="305.6621"/><text fill="#000000" font-family="sans-serif" font-size="13" font-weight="bold" lengthAdjust="spacing" textLength="9" x="579.5" y="300.9199">4</text><text fill="#000000" font-family="sans-serif" font-size="13" lengthAdjust="spacing" textLength="168" x="592.5" y="300.9199">[CAN] sensor_temp_humid</text><line style="stroke:#181818;stroke-width:1.0;" x1="562.5" x2="604.5" y1="341.9727" y2="341.9727"/><line style="stroke:#181818;stroke-width:1.0;" x1="604.5" x2="604.5" y1="341.9727" y2="354.9727"/><line style="stroke:#181818;stroke-width:1.0;" x1="563.5" x2="604.5" y1="354.9727" y2="354.9727"/><polygon fill="#181818" points="573.5,350.9727,563.5,354.9727,573.5,358.9727,569.5,354.9727" style="stroke:#181818;stroke-width:1.0;"/><text fill="#000000" font-family="sans-serif" font-size="13" font-weight="bold" lengthAdjust="spacing" textLength="9" x="569.5" y="337.2305">5</text><text fill="#000000" font-family="sans-serif" font-size="13" lengthAdjust="spacing" textLength="148" x="582.5" y="337.2305">Check current humidity</text><line style="stroke:#181818;stroke-width:1.0;" x1="562.5" x2="604.5" y1="384.2832" y2="384.2832"/><line style="stroke:#181818;stroke-width:1.0;" x1="604.5" x2="604.5" y1="384.2832" y2="397.2832"/><line style="stroke:#181818;stroke-width:1.0;" x1="563.5" x2="604.5" y1="397.2832" y2="397.2832"/><polygon fill="#181818" points="573.5,393.2832,563.5,397.2832,573.5,401.2832,569.5,397.2832" style="stroke:#181818;stroke-width:1.0;"/><text fill="#000000" font-family="sans-serif" font-size="13" font-weight="bold" lengthAdjust="spacing" textLength="9" x="569.5" y="379.541">6</text><text fill="#000000" font-family="sans-serif" font-size="13" lengthAdjust="spacing" textLength="185" x="582.5" y="379.541">Calculate required adaptation</text><polygon fill="#181818" points="947,422.5938,957,426.5938,947,430.5938,951,426.5938" style="stroke:#181818;stroke-width:1.0;"/><line style="stroke:#181818;stroke-width:1.0;" x1="562.5" x2="953" y1="426.5938" y2="426.5938"/><text fill="#000000" font-family="sans-serif" font-size="13" font-weight="bold" lengthAdjust="spacing" textLength="9" x="569.5" y="421.8516">7</text><text fill="#000000" font-family="sans-serif" font-size="13" lengthAdjust="spacing" textLength="197" x="582.5" y="421.8516">[CAN] actuator_control_climate</text><rect fill="#EEEEEE" height="3" style="stroke:#EEEEEE;stroke-width:1.0;" width="1070" x="0" y="462.249"/><line style="stroke:#000000;stroke-width:1.0;" x1="0" x2="1070" y1="462.249" y2="462.249"/><line style="stroke:#000000;stroke-width:1.0;" x1="0" x2="1070" y1="465.249" y2="465.249"/><rect fill="#EEEEEE" height="23.3105" style="stroke:#000000;stroke-width:2.0;" width="157" x="456.5" y="451.5938"/><text fill="#000000" font-family="sans-serif" font-size="13" font-weight="bold" lengthAdjust="spacing" textLength="139" x="462.5" y="468.1621">Climate adjustments</text><rect fill="none" height="39.4434" style="stroke:#000000;stroke-width:1.5;" width="1051" x="2" y="484.9043"/><path d="M2,484.9043 L66,484.9043 L66,491.9043 L56,501.9043 L2,501.9043 L2,484.9043 " fill="#EEEEEE" style="stroke:#000000;stroke-width:2.0;"/><text fill="#000000" font-family="sans-serif" font-size="13" font-weight="bold" lengthAdjust="spacing" textLength="19" x="15" y="499.4727">ref</text><text fill="#000000" font-family="sans-serif" font-size="12" lengthAdjust="spacing" textLength="109" x="473" y="517.5059">05_2_sd_set_temp</text><line style="stroke:#181818;stroke-width:1.0;" x1="562.5" x2="604.5" y1="550.6582" y2="550.6582"/><line style="stroke:#181818;stroke-width:1.0;" x1="604.5" x2="604.5" y1="550.6582" y2="563.6582"/><line style="stroke:#181818;stroke-width:1.0;" x1="563.5" x2="604.5" y1="563.6582" y2="563.6582"/><polygon fill="#181818" points="573.5,559.6582,563.5,563.6582,573.5,567.6582,569.5,563.6582" style="stroke:#181818;stroke-width:1.0;"/><text fill="#000000" font-family="sans-serif" font-size="13" font-weight="bold" lengthAdjust="spacing" textLength="9" x="569.5" y="545.916">8</text><text fill="#000000" font-family="sans-serif" font-size="13" lengthAdjust="spacing" textLength="138" x="582.5" y="545.916">Persist Climate values</text><line style="stroke:#181818;stroke-width:1.0;" x1="562.5" x2="604.5" y1="592.9688" y2="592.9688"/><line style="stroke:#181818;stroke-width:1.0;" x1="604.5" x2="604.5" y1="592.9688" y2="605.9688"/><line style="stroke:#181818;stroke-width:1.0;" x1="563.5" x2="604.5" y1="605.9688" y2="605.9688"/><polygon fill="#181818" points="573.5,601.9688,563.5,605.9688,573.5,609.9688,569.5,605.9688" style="stroke:#181818;stroke-width:1.0;"/><text fill="#000000" font-family="sans-serif" font-size="13" font-weight="bold" lengthAdjust="spacing" textLength="9" x="569.5" y="588.2266">9</text><text fill="#000000" font-family="sans-serif" font-size="13" lengthAdjust="spacing" textLength="187" x="582.5" y="588.2266">Calculate Climate preferences</text><rect fill="#EEEEEE" height="3" style="stroke:#EEEEEE;stroke-width:1.0;" width="1070" x="0" y="634.624"/><line style="stroke:#000000;stroke-width:1.0;" x1="0" x2="1070" y1="634.624" y2="634.624"/><line style="stroke:#000000;stroke-width:1.0;" x1="0" x2="1070" y1="637.624" y2="637.624"/><rect fill="#EEEEEE" height="23.3105" style="stroke:#000000;stroke-width:2.0;" width="202" x="434" y="623.9688"/><text fill="#000000" font-family="sans-serif" font-size="13" font-weight="bold" lengthAdjust="spacing" textLength="184" x="440" y="640.5371">Disable personalized mode</text><polygon fill="#181818" points="281.5,674.5898,291.5,678.5898,281.5,682.5898,285.5,678.5898" style="stroke:#181818;stroke-width:1.0;"/><line style="stroke:#181818;stroke-width:1.0;" x1="38.5" x2="287.5" y1="678.5898" y2="678.5898"/><text fill="#000000" font-family="sans-serif" font-size="13" font-weight="bold" lengthAdjust="spacing" textLength="18" x="45.5" y="673.8477">10</text><text fill="#000000" font-family="sans-serif" font-size="13" lengthAdjust="spacing" textLength="209" x="67.5" y="673.8477">Disable personilized mode (zone)</text><polygon fill="#181818" points="550.5,703.9004,560.5,707.9004,550.5,711.9004,554.5,707.9004" style="stroke:#181818;stroke-width:1.0;"/><line style="stroke:#181818;stroke-width:1.0;" x1="293.5" x2="556.5" y1="707.9004" y2="707.9004"/><text fill="#000000" font-family="sans-serif" font-size="13" font-weight="bold" lengthAdjust="spacing" textLength="18" x="300.5" y="703.1582">11</text><text fill="#000000" font-family="sans-serif" font-size="13" lengthAdjust="spacing" textLength="223" x="322.5" y="703.1582">personilized_mode(zone, on=False)</text><line style="stroke:#181818;stroke-width:1.0;" x1="562.5" x2="604.5" y1="737.2109" y2="737.2109"/><line style="stroke:#181818;stroke-width:1.0;" x1="604.5" x2="604.5" y1="737.2109" y2="750.2109"/><line style="stroke:#181818;stroke-width:1.0;" x1="563.5" x2="604.5" y1="750.2109" y2="750.2109"/><polygon fill="#181818" points="573.5,746.2109,563.5,750.2109,573.5,754.2109,569.5,750.2109" style="stroke:#181818;stroke-width:1.0;"/><text fill="#000000" font-family="sans-serif" font-size="13" font-weight="bold" lengthAdjust="spacing" textLength="18" x="569.5" y="732.4688">12</text><text fill="#000000" font-family="sans-serif" font-size="13" lengthAdjust="spacing" textLength="170" x="591.5" y="732.4688">Disable personalized mode</text><!--SRC=[dP9DImCn48Rl-HLZJmeMHF1Is8BKUXGFUX89qsHaezbapKV5_dedQRUuQaNCPPV9CvDttXbKoGUOB9s6-qXX0XWXyu_eCIIZJ8ykmKHPqs4YgRnBmLlPTaOoj3QAOatXmEyP8xfUZlb8BleWDIRa76kfwAfmkHcpQ4Afgqqotb6Gg5B60IyNGc1EtkLknOqq3ImThYn1Jo5wXzPiI4FdDK7JYDBiTCxwPsFCVCAED_pEYM1eEg_QPoD85gWof-1TSnSomvNRuukMr4ir5lf0JnJ8iHb2MEzxU6iDFwjou6XQR8s3esOWzIuaW4zD85GjNB0pfTbOu-KKfwRpuSc7nUND8-nyJTJriisTqPKcj_t-97Ad0ofjqljF85gLRL4Pw3KRbWYeiKzO1ZBYMT-WP9ZIVYLsAoAAc3AbeNFKppccZZN4CY31Be1VitF5ljFjWCykvBcCcjSgrTvA4HRpzCNsMvwIYMbVUeqsi-s7kXcmqOXOsPM9VrgWCVV_3Rf66x-jq44HuWC0]--></g></svg>